<?xml version="1.0" standalone="no"?>
<!DOCTYPE svg PUBLIC "-//W3C//DTD SVG 20010904//EN"
 "http://www.w3.org/TR/2001/REC-SVG-20010904/DTD/svg10.dtd">
<svg version="1.0" xmlns="http://www.w3.org/2000/svg"
 width="520.000000pt" height="520.000000pt" viewBox="0 0 520.000000 520.000000"
 preserveAspectRatio="xMidYMid meet">
<metadata>
Created by potrace 1.14, written by Peter Selinger 2001-2017
</metadata>
<g transform="translate(0.000000,520.000000) scale(0.100000,-0.100000)"
fill="#000000" stroke="none">
<path d="M1386 4375 c-286 -73 -478 -330 -463 -625 12 -255 177 -472 419 -551
105 -35 271 -34 377 0 181 60 332 211 392 393 34 105 34 271 0 376 -59 179
-202 326 -381 389 -94 33 -252 41 -344 18z"/>
<path d="M2535 3223 c-329 -52 -610 -313 -694 -646 l-19 -71 -71 -18 c-153
-37 -285 -135 -364 -269 -180 -306 -64 -722 244 -869 75 -35 209 -68 209 -51
0 3 -12 42 -26 86 -88 275 7 585 234 766 56 44 211 113 280 124 24 4 45 12 47
18 44 151 85 256 126 325 57 97 143 208 188 243 81 64 100 77 169 121 41 26
113 59 160 74 78 25 83 28 66 42 -35 27 -179 91 -239 108 -60 15 -253 27 -310
17z"/>
<path d="M3201 2909 c-191 -34 -385 -153 -508 -314 -67 -87 -137 -227 -162
-325 l-19 -74 -71 -18 c-178 -43 -313 -155 -393 -324 -171 -364 56 -814 437
-865 53 -6 345 -9 855 -6 862 4 822 0 960 73 207 109 334 295 381 558 39 223
-77 525 -259 671 -72 58 -199 120 -277 136 l-60 12 -40 70 c-48 85 -156 202
-240 262 -75 54 -189 109 -270 130 -72 20 -259 28 -334 14z"/>
</g>
</svg>
